<svg id="svg" version="1.1" xmlns="http://www.w3.org/2000/svg" xmlns:xlink="http://www.w3.org/1999/xlink" width="400" height="400" viewBox="0, 0, 400,400"><g id="svgg"><path id="path0" d="M106.400 47.402 C 95.022 49.999,85.602 58.231,82.103 68.635 C 80.101 74.585,80.200 72.585,80.200 107.200 L 80.200 139.800 86.600 139.800 L 93.000 139.800 93.212 108.000 C 93.417 77.301,93.452 76.122,94.238 73.961 C 96.707 67.171,101.518 62.623,108.187 60.775 C 112.119 59.685,287.130 59.545,291.310 60.629 C 298.092 62.386,302.902 66.746,305.715 73.684 C 306.561 75.770,306.576 76.256,306.786 107.800 L 307.000 139.800 312.600 139.915 C 315.680 139.978,318.616 139.927,319.125 139.801 L 320.051 139.572 319.894 107.286 C 319.720 71.277,319.836 72.830,316.817 66.236 C 312.805 57.478,304.441 50.449,294.800 47.736 C 291.450 46.793,110.473 46.472,106.400 47.402 M17.600 107.089 C 13.946 108.461,13.200 110.652,13.200 120.000 C 13.200 133.033,13.899 133.600,29.953 133.600 C 46.223 133.600,46.960 132.967,46.726 119.194 C 46.513 106.702,46.650 106.803,30.000 106.838 C 23.510 106.852,17.930 106.965,17.600 107.089 M356.887 107.465 C 353.701 109.036,353.126 111.102,353.276 120.442 C 353.481 133.261,353.913 133.600,370.035 133.600 C 386.130 133.600,386.808 133.046,386.789 119.904 C 386.776 110.964,386.335 109.393,383.370 107.707 C 381.268 106.511,359.231 106.310,356.887 107.465 M71.529 157.100 C 63.110 165.252,58.446 172.684,53.926 185.154 C 52.280 189.694,48.722 192.773,43.507 194.171 C 26.440 198.747,16.009 206.618,13.611 216.729 C 12.401 221.834,24.414 226.328,39.520 226.422 C 50.064 226.487,53.199 228.122,53.201 233.559 C 53.202 236.010,54.144 245.245,54.766 248.899 C 55.955 255.879,58.844 263.575,61.057 265.653 L 62.065 266.600 199.806 266.600 L 337.548 266.600 338.811 265.400 C 340.740 263.568,342.742 259.106,343.927 254.000 C 345.493 247.245,345.914 244.394,346.391 237.306 C 347.048 227.534,347.659 227.042,359.892 226.431 C 372.014 225.825,380.905 223.751,385.103 220.549 C 389.167 217.449,382.572 206.379,373.594 201.230 C 369.037 198.616,364.527 196.756,357.570 194.620 C 352.582 193.089,349.784 191.451,347.938 188.981 C 346.943 187.649,346.518 186.697,344.333 180.900 C 340.746 171.384,332.994 160.403,325.864 154.738 L 323.928 153.200 199.742 153.200 L 75.557 153.200 71.529 157.100 M125.800 180.750 C 137.353 186.030,140.000 190.849,140.000 206.600 C 140.000 221.779,136.782 228.074,127.000 232.029 L 124.600 233.000 103.400 233.000 C 86.536 233.000,81.914 232.889,80.800 232.459 C 73.812 229.758,70.242 226.188,67.541 219.200 C 66.454 216.389,66.790 195.920,67.971 193.000 C 70.699 186.253,76.163 181.663,83.000 180.378 C 86.056 179.803,124.458 180.137,125.800 180.750 M161.626 180.265 C 162.419 180.424,163.644 181.223,164.676 182.255 L 166.400 183.979 166.400 213.009 C 166.400 244.690,166.490 243.428,164.106 245.123 C 160.351 247.793,155.968 246.698,154.047 242.611 C 153.031 240.450,152.692 187.988,153.673 184.715 C 154.638 181.493,158.094 179.559,161.626 180.265 M190.607 181.378 C 193.309 183.439,193.200 182.089,193.200 213.380 C 193.200 238.844,193.135 241.766,192.541 242.920 C 190.241 247.386,184.671 247.860,181.442 243.863 L 180.200 242.326 180.090 214.345 C 180.016 195.704,180.119 185.842,180.399 184.803 C 181.541 180.564,187.096 178.701,190.607 181.378 M216.861 181.097 C 217.518 181.484,218.448 182.430,218.928 183.200 L 219.800 184.600 219.800 213.431 L 219.800 242.262 218.643 243.779 C 215.596 247.774,209.766 247.445,207.577 243.155 C 206.467 240.980,206.356 186.057,207.456 183.738 C 209.074 180.330,213.463 179.097,216.861 181.097 M243.907 181.455 C 246.889 183.729,246.781 182.556,246.791 212.954 C 246.801 242.436,246.805 242.368,244.587 244.587 C 242.155 247.019,238.892 247.216,235.894 245.113 C 233.511 243.441,233.600 244.691,233.600 213.009 L 233.600 183.979 235.356 182.223 C 237.899 179.680,241.193 179.384,243.907 181.455 M319.916 181.091 C 325.861 183.485,329.713 187.272,332.029 193.000 C 333.210 195.920,333.546 216.389,332.459 219.200 C 329.758 226.188,326.188 229.758,319.200 232.459 C 318.086 232.889,313.464 233.000,296.600 233.000 L 275.400 233.000 273.000 232.029 C 268.214 230.094,264.147 226.324,262.053 221.879 C 259.011 215.426,259.040 197.734,262.103 191.200 C 264.525 186.034,271.165 181.025,276.600 180.264 C 281.460 179.585,317.902 180.280,319.916 181.091 M85.423 193.547 C 84.775 193.686,92.865 193.800,103.400 193.800 C 113.935 193.800,122.025 193.686,121.377 193.547 C 120.730 193.408,112.640 193.295,103.400 193.295 C 94.160 193.295,86.070 193.408,85.423 193.547 M278.623 193.547 C 277.975 193.686,286.065 193.800,296.600 193.800 C 307.135 193.800,315.225 193.686,314.577 193.547 C 313.930 193.408,305.840 193.295,296.600 193.295 C 287.360 193.295,279.270 193.408,278.623 193.547 M82.487 195.100 C 81.530 196.035,81.514 196.081,82.381 195.406 C 84.088 194.076,84.169 194.000,83.886 194.000 C 83.736 194.000,83.106 194.495,82.487 195.100 M123.942 195.138 C 124.681 195.832,125.383 196.400,125.504 196.400 C 125.895 196.400,124.234 194.739,123.404 194.301 C 122.962 194.067,123.204 194.444,123.942 195.138 M275.614 195.050 C 274.928 195.627,274.439 196.172,274.528 196.262 C 274.617 196.351,275.274 195.878,275.987 195.212 C 277.580 193.724,277.322 193.612,275.614 195.050 M316.200 194.257 C 318.237 196.064,318.987 196.591,318.202 195.663 C 317.766 195.148,317.047 194.541,316.604 194.314 C 316.162 194.087,315.980 194.062,316.200 194.257 M80.168 206.600 C 80.168 211.000,80.226 212.855,80.298 210.721 C 80.370 208.588,80.370 204.988,80.299 202.721 C 80.227 200.455,80.168 202.200,80.168 206.600 M319.768 206.600 C 319.768 211.000,319.826 212.855,319.898 210.721 C 319.970 208.588,319.970 204.988,319.899 202.721 C 319.827 200.455,319.768 202.200,319.768 206.600 M126.565 206.800 C 126.565 210.650,126.625 212.225,126.698 210.300 C 126.771 208.375,126.771 205.225,126.698 203.300 C 126.625 201.375,126.565 202.950,126.565 206.800 M273.365 206.800 C 273.365 210.650,273.425 212.225,273.498 210.300 C 273.571 208.375,273.571 205.225,273.498 203.300 C 273.425 201.375,273.365 202.950,273.365 206.800 M80.428 215.200 C 80.373 216.655,83.325 219.614,84.800 219.582 C 85.130 219.575,84.860 219.329,84.200 219.035 C 82.782 218.405,81.405 216.993,80.849 215.600 C 80.630 215.050,80.440 214.870,80.428 215.200 M319.200 215.303 C 319.200 216.241,317.221 218.427,315.820 219.037 C 315.149 219.330,314.849 219.576,315.153 219.584 C 316.764 219.630,320.338 215.804,319.482 214.949 C 319.327 214.794,319.200 214.953,319.200 215.303 M124.632 217.565 C 124.252 217.985,123.369 218.611,122.670 218.955 C 121.972 219.300,121.685 219.586,122.033 219.591 C 122.614 219.599,126.105 216.855,125.562 216.817 C 125.431 216.807,125.013 217.144,124.632 217.565 M275.943 218.300 C 276.708 219.015,277.618 219.599,277.967 219.598 C 278.315 219.596,278.060 219.314,277.400 218.971 C 276.740 218.628,275.830 218.044,275.377 217.673 C 274.924 217.303,275.179 217.585,275.943 218.300 M94.527 219.900 C 99.547 219.963,107.647 219.963,112.527 219.900 C 117.407 219.836,113.300 219.784,103.400 219.784 C 93.500 219.784,89.507 219.836,94.527 219.900 M287.727 219.900 C 292.747 219.963,300.847 219.963,305.727 219.900 C 310.607 219.836,306.500 219.784,296.600 219.784 C 286.700 219.784,282.707 219.836,287.727 219.900 M96.909 241.193 C 101.293 244.200,100.886 250.028,96.105 252.700 C 94.412 253.646,78.635 253.383,76.848 252.379 C 72.118 249.720,72.573 242.500,77.600 240.438 C 79.914 239.489,95.302 240.091,96.909 241.193 M323.472 241.037 C 327.616 244.111,327.451 249.963,323.152 252.379 C 321.365 253.383,305.588 253.646,303.895 252.700 C 298.596 249.738,298.761 243.190,304.200 240.583 C 306.311 239.572,321.994 239.941,323.472 241.037 M166.893 316.700 L 166.985 326.600 167.100 316.900 L 167.214 307.200 200.000 307.200 L 232.786 307.200 232.900 316.900 L 233.015 326.600 233.107 316.700 L 233.200 306.800 200.000 306.800 L 166.800 306.800 166.893 316.700 M183.700 326.700 C 192.665 326.760,207.335 326.760,216.300 326.700 C 225.265 326.640,217.930 326.591,200.000 326.591 C 182.070 326.591,174.735 326.640,183.700 326.700 " stroke="none" fill="#e04f42" fill-rule="evenodd"></path><path id="path1" d="M111.792 73.572 C 106.563 74.826,106.778 73.266,106.898 109.089 L 107.000 139.800 115.057 139.800 L 123.115 139.800 145.125 106.810 C 157.231 88.665,167.050 73.680,166.944 73.510 C 166.703 73.119,113.430 73.179,111.792 73.572 M183.549 73.856 C 182.008 75.696,139.721 139.444,139.871 139.700 C 139.968 139.865,145.217 140.000,151.537 140.000 L 163.026 140.000 185.089 106.923 C 197.224 88.731,207.063 73.701,206.953 73.523 C 206.520 72.823,184.148 73.141,183.549 73.856 M223.968 73.567 C 223.621 73.785,218.807 80.766,213.271 89.082 C 207.734 97.397,197.918 112.120,191.457 121.800 C 184.996 131.480,179.786 139.535,179.879 139.700 C 180.086 140.069,270.612 140.100,283.500 139.735 L 292.800 139.472 292.800 108.716 C 292.800 73.626,293.054 75.944,289.000 74.035 C 287.513 73.335,225.055 72.885,223.968 73.567 " stroke="none" fill="#04b7cd" fill-rule="evenodd"></path><path id="path2" d="M145.675 106.600 L 123.674 139.600 131.434 139.600 L 139.194 139.600 141.097 136.700 C 142.144 135.105,143.213 133.574,143.474 133.298 C 143.734 133.021,144.062 132.436,144.201 131.998 C 144.340 131.559,144.610 131.200,144.800 131.200 C 144.990 131.200,145.260 130.841,145.399 130.402 C 145.538 129.964,145.866 129.379,146.126 129.102 C 146.500 128.706,181.668 76.152,182.920 74.119 C 183.178 73.700,181.737 73.600,175.458 73.600 L 167.676 73.600 145.675 106.600 M185.694 106.600 L 163.708 139.600 171.554 139.563 L 179.400 139.526 197.930 111.663 C 208.121 96.338,217.973 81.505,219.823 78.700 L 223.187 73.600 215.433 73.600 L 207.680 73.600 185.694 106.600 M85.600 193.895 C 81.195 194.421,80.324 196.687,80.478 207.212 C 80.670 220.328,78.928 219.400,103.360 219.400 L 122.262 219.400 123.736 218.276 C 126.149 216.435,126.400 215.333,126.400 206.570 C 126.400 196.515,125.468 194.432,120.712 193.861 C 118.440 193.588,87.922 193.618,85.600 193.895 M278.726 193.877 C 277.075 194.065,274.869 195.890,274.082 197.719 C 273.761 198.463,273.600 201.426,273.600 206.570 C 273.600 215.333,273.851 216.435,276.264 218.276 L 277.738 219.400 296.640 219.400 C 321.072 219.400,319.330 220.328,319.522 207.212 C 319.661 197.759,319.474 196.860,316.974 194.953 L 315.463 193.800 297.832 193.754 C 288.134 193.729,279.537 193.784,278.726 193.877 M167.200 316.800 L 167.200 326.400 200.000 326.400 L 232.800 326.400 232.800 316.800 L 232.800 307.200 200.000 307.200 L 167.200 307.200 167.200 316.800 " stroke="none" fill="#f7e35d" fill-rule="evenodd"></path><path id="path3" d="M166.910 73.443 C 167.044 73.577,165.217 76.592,162.850 80.143 C 157.999 87.422,157.886 87.600,158.127 87.600 C 158.223 87.600,160.428 84.450,163.028 80.600 L 167.756 73.600 175.502 73.600 C 181.592 73.600,183.183 73.707,182.947 74.100 C 182.743 74.440,182.863 74.424,183.323 74.051 C 183.695 73.749,184.000 73.434,184.000 73.351 C 184.000 73.268,180.100 73.200,175.333 73.200 C 170.567 73.200,166.776 73.310,166.910 73.443 M206.933 73.725 C 206.933 74.014,204.154 78.379,200.757 83.425 C 193.608 94.046,193.118 94.800,193.367 94.800 C 193.470 94.800,196.746 90.030,200.649 84.200 L 207.744 73.600 215.481 73.600 L 223.218 73.600 220.481 77.700 C 217.484 82.190,216.848 83.231,217.489 82.600 C 217.712 82.380,219.171 80.283,220.730 77.939 C 222.290 75.596,223.798 73.585,224.083 73.471 C 224.367 73.357,220.625 73.249,215.767 73.232 C 208.727 73.206,206.933 73.307,206.933 73.725 M173.600 88.000 C 173.130 88.660,172.836 89.200,172.946 89.200 C 173.056 89.200,173.530 88.660,174.000 88.000 C 174.470 87.340,174.764 86.800,174.654 86.800 C 174.544 86.800,174.070 87.340,173.600 88.000 M161.136 106.700 C 150.634 122.460,149.621 124.018,150.278 123.400 C 151.036 122.686,171.374 92.000,171.089 92.000 C 171.002 92.000,166.523 98.615,161.136 106.700 M204.786 101.253 C 203.421 103.262,202.481 104.797,202.697 104.663 C 202.914 104.530,203.960 103.111,205.023 101.510 C 206.086 99.910,207.123 98.375,207.327 98.100 C 207.531 97.825,207.601 97.600,207.482 97.600 C 207.364 97.600,206.150 99.244,204.786 101.253 M136.144 120.300 C 124.059 138.314,123.121 139.745,123.901 139.000 C 124.682 138.254,148.605 102.400,148.322 102.400 C 148.229 102.400,142.749 110.455,136.144 120.300 M191.535 121.100 C 181.845 135.645,180.827 137.213,181.478 136.600 C 182.236 135.886,200.974 107.600,200.689 107.600 C 200.601 107.600,196.482 113.675,191.535 121.100 M172.982 125.061 C 167.712 132.905,163.340 139.475,163.267 139.661 C 163.193 139.848,166.973 139.959,171.667 139.909 L 180.200 139.817 171.960 139.701 L 163.720 139.584 172.593 126.292 C 183.085 110.575,182.937 110.800,182.728 110.800 C 182.638 110.800,178.252 117.218,172.982 125.061 M145.673 129.800 C 145.422 130.350,145.283 130.800,145.363 130.800 C 145.443 130.800,145.803 130.350,146.163 129.800 C 146.524 129.250,146.663 128.800,146.473 128.800 C 146.284 128.800,145.923 129.250,145.673 129.800 M144.073 132.200 C 143.822 132.750,143.683 133.200,143.763 133.200 C 143.843 133.200,144.203 132.750,144.563 132.200 C 144.924 131.650,145.063 131.200,144.873 131.200 C 144.684 131.200,144.323 131.650,144.073 132.200 M142.319 134.803 C 141.442 136.343,141.702 136.342,142.800 134.800 C 143.270 134.140,143.507 133.601,143.327 133.603 C 143.147 133.604,142.693 134.144,142.319 134.803 M139.369 139.191 C 139.148 139.412,135.491 139.634,130.989 139.700 L 123.000 139.818 131.433 139.909 C 138.703 139.987,139.867 139.917,139.867 139.400 C 139.867 138.690,139.869 138.691,139.369 139.191 M79.764 206.600 C 79.763 210.340,79.823 211.924,79.897 210.120 C 79.971 208.315,79.972 205.255,79.898 203.320 C 79.825 201.384,79.764 202.860,79.764 206.600 M320.164 206.600 C 320.163 210.340,320.223 211.924,320.297 210.120 C 320.371 208.315,320.372 205.255,320.298 203.320 C 320.225 201.384,320.164 202.860,320.164 206.600 M95.127 220.300 C 99.817 220.364,107.377 220.364,111.927 220.299 C 116.477 220.235,112.640 220.183,103.400 220.183 C 94.160 220.183,90.437 220.236,95.127 220.300 M288.327 220.300 C 293.017 220.364,300.577 220.364,305.127 220.299 C 309.677 220.235,305.840 220.183,296.600 220.183 C 287.360 220.183,283.637 220.236,288.327 220.300 M26.894 291.300 L 27.000 343.800 28.092 345.800 C 30.482 350.179,35.495 353.608,38.821 353.138 L 39.800 353.000 40.000 345.381 C 40.220 336.996,40.324 336.614,42.930 334.627 C 45.001 333.047,49.330 333.227,51.005 334.963 C 53.089 337.123,53.177 337.526,53.291 345.449 L 53.400 353.000 63.262 353.107 L 73.125 353.214 73.262 345.707 C 73.445 335.764,74.643 333.598,79.959 333.601 C 85.451 333.605,86.957 336.156,87.126 345.742 L 87.251 352.883 88.426 352.642 C 89.072 352.509,90.140 352.290,90.800 352.155 C 91.460 352.020,92.000 351.750,92.000 351.555 C 92.000 351.360,92.284 351.200,92.632 351.200 C 92.980 351.200,94.292 350.165,95.548 348.900 C 99.151 345.271,99.347 344.403,99.511 331.300 L 99.647 320.400 95.524 320.362 C 71.306 320.141,55.286 319.697,54.200 319.217 C 49.648 317.206,48.420 316.431,45.996 314.039 C 40.963 309.072,39.997 305.727,40.006 293.280 C 40.014 281.088,40.894 277.932,45.672 272.956 L 48.041 270.489 46.266 266.332 C 42.989 258.661,41.036 251.053,40.536 244.010 C 40.394 242.009,40.141 240.287,39.973 240.183 C 39.734 240.035,28.427 238.825,27.094 238.805 C 26.926 238.802,26.836 262.425,26.894 291.300 M369.000 239.590 C 368.560 239.785,366.467 239.956,364.349 239.972 C 359.746 240.005,359.785 239.971,359.470 244.261 C 358.977 250.987,356.941 258.825,353.739 266.320 L 351.969 270.465 354.433 273.099 C 356.986 275.828,359.031 279.495,359.458 282.109 C 359.594 282.939,359.861 283.714,360.053 283.832 C 360.508 284.114,360.505 302.202,360.050 303.105 C 359.857 303.487,359.365 304.872,358.957 306.181 C 357.477 310.929,353.356 315.744,349.077 317.725 C 347.935 318.254,346.460 318.937,345.800 319.243 C 344.838 319.689,340.188 319.839,322.400 320.000 L 300.200 320.200 300.080 330.800 C 299.956 341.825,300.088 343.088,301.701 346.336 C 303.400 349.757,308.573 353.200,312.015 353.200 L 313.200 353.200 313.200 346.085 C 313.200 336.163,314.596 333.600,320.000 333.600 C 325.363 333.600,326.555 335.742,326.738 345.707 L 326.875 353.214 336.738 353.107 L 346.600 353.000 346.699 345.600 C 346.813 337.067,347.244 335.689,350.304 334.051 C 353.251 332.474,359.600 334.988,359.600 337.731 C 359.600 338.099,359.780 338.400,360.000 338.400 C 360.252 338.400,360.400 341.067,360.400 345.600 L 360.400 352.800 361.576 352.800 C 362.223 352.800,362.864 352.620,363.000 352.400 C 363.136 352.180,363.600 352.000,364.032 352.000 C 365.965 352.000,370.034 348.444,371.613 345.375 L 372.600 343.456 372.600 291.428 L 372.600 239.400 371.200 239.319 C 370.430 239.274,369.440 239.396,369.000 239.590 M57.800 280.292 C 54.041 281.238,53.200 283.641,53.201 293.426 C 53.201 302.431,53.383 303.171,56.137 305.372 L 57.674 306.600 105.312 306.600 L 152.949 306.600 153.614 303.965 C 154.744 299.489,158.140 295.699,162.350 294.216 C 165.495 293.109,235.183 293.306,238.190 294.430 C 241.956 295.840,245.491 300.059,246.206 304.000 C 246.345 304.770,246.550 305.720,246.660 306.111 C 246.851 306.788,249.133 306.817,294.360 306.711 L 341.859 306.600 343.467 305.536 C 346.239 303.701,346.582 302.484,346.723 293.982 C 346.868 285.289,346.471 283.551,343.863 281.442 L 342.326 280.200 200.463 280.145 C 122.438 280.115,58.240 280.181,57.800 280.292 M183.500 306.700 C 192.575 306.760,207.425 306.760,216.500 306.700 C 225.575 306.640,218.150 306.591,200.000 306.591 C 181.850 306.591,174.425 306.640,183.500 306.700 M166.589 316.767 C 166.598 325.103,166.688 326.558,167.200 326.697 C 167.636 326.816,167.666 326.766,167.307 326.511 C 166.947 326.255,166.783 323.598,166.696 316.581 L 166.577 307.000 166.589 316.767 M233.292 316.667 C 233.223 323.955,233.077 326.383,232.700 326.535 C 232.308 326.693,232.311 326.744,232.713 326.768 C 233.567 326.821,233.619 326.130,233.500 316.392 L 233.385 307.000 233.292 316.667 " stroke="none" fill="#637b8b" fill-rule="evenodd"></path><path id="path4" d="M108.400 32.800 C 108.400 33.025,107.275 33.200,105.824 33.200 C 104.407 33.200,103.136 33.380,103.000 33.600 C 102.864 33.820,102.144 34.000,101.400 34.000 C 100.656 34.000,99.936 34.180,99.800 34.400 C 99.664 34.620,99.124 34.800,98.600 34.800 C 98.076 34.800,97.536 34.980,97.400 35.200 C 97.264 35.420,96.803 35.600,96.376 35.600 C 95.949 35.600,95.600 35.780,95.600 36.000 C 95.600 36.220,95.276 36.400,94.880 36.400 C 93.986 36.400,92.007 37.294,92.003 37.700 C 92.001 37.865,91.640 38.000,91.200 38.000 C 90.760 38.000,90.400 38.180,90.400 38.400 C 90.400 38.620,90.080 38.800,89.688 38.800 C 89.297 38.800,88.717 39.160,88.400 39.600 C 88.083 40.040,87.569 40.400,87.259 40.400 C 86.948 40.400,86.403 40.733,86.047 41.141 C 85.691 41.548,84.779 42.202,84.019 42.593 C 82.242 43.508,75.844 50.045,75.198 51.605 C 74.926 52.262,74.545 52.800,74.351 52.800 C 74.158 52.800,74.000 53.036,74.000 53.325 C 74.000 53.613,73.640 54.236,73.200 54.708 C 72.760 55.180,72.400 55.844,72.400 56.183 C 72.400 56.522,72.220 56.800,72.000 56.800 C 71.780 56.800,71.600 57.160,71.600 57.600 C 71.600 58.040,71.420 58.400,71.200 58.400 C 70.980 58.400,70.800 58.670,70.800 59.000 C 70.800 59.330,70.620 59.600,70.400 59.600 C 70.180 59.600,70.000 59.960,70.000 60.400 C 70.000 60.840,69.820 61.200,69.600 61.200 C 69.380 61.200,69.200 61.740,69.200 62.400 C 69.200 63.060,69.020 63.600,68.800 63.600 C 68.580 63.600,68.400 63.949,68.400 64.376 C 68.400 64.803,68.220 65.264,68.000 65.400 C 67.780 65.536,67.600 66.256,67.600 67.000 C 67.600 67.744,67.420 68.464,67.200 68.600 C 66.980 68.736,66.800 69.636,66.800 70.600 C 66.800 71.564,66.620 72.464,66.400 72.600 C 66.141 72.760,66.000 81.004,66.000 96.024 L 66.000 119.200 63.200 119.200 L 60.400 119.200 60.400 113.824 C 60.400 110.671,60.235 108.345,60.000 108.200 C 59.780 108.064,59.600 107.333,59.600 106.576 C 59.600 105.819,59.420 105.200,59.200 105.200 C 58.980 105.200,58.800 104.840,58.800 104.400 C 58.800 103.960,58.620 103.600,58.400 103.600 C 58.180 103.600,58.000 103.279,58.000 102.887 C 58.000 101.839,54.286 97.200,53.447 97.200 C 53.188 97.200,52.717 96.840,52.400 96.400 C 52.083 95.960,51.580 95.600,51.283 95.600 C 50.986 95.600,50.464 95.321,50.123 94.980 C 49.782 94.640,48.985 94.257,48.352 94.130 C 47.718 94.004,47.200 93.762,47.200 93.594 C 47.200 91.976,14.856 92.043,13.020 93.664 C 12.811 93.849,12.314 94.000,11.915 94.000 C 11.035 94.000,9.640 94.751,8.757 95.700 C 8.399 96.085,7.931 96.400,7.717 96.400 C 7.120 96.400,3.871 99.660,3.232 100.900 C 2.920 101.505,2.515 102.000,2.332 102.000 C 2.150 102.000,2.000 102.360,2.000 102.800 C 2.000 103.240,1.820 103.600,1.600 103.600 C 1.380 103.600,1.200 103.945,1.200 104.367 C 1.200 104.788,0.975 105.208,0.700 105.300 C 0.312 105.429,0.200 108.729,0.200 120.000 C 0.200 131.271,0.312 134.571,0.700 134.700 C 0.975 134.792,1.200 135.086,1.200 135.354 C 1.200 136.063,2.149 137.993,2.500 137.997 C 2.665 137.999,2.800 138.270,2.800 138.600 C 2.800 138.930,2.980 139.200,3.200 139.200 C 3.420 139.200,3.600 139.470,3.600 139.800 C 3.600 140.130,3.748 140.400,3.928 140.400 C 4.109 140.400,5.076 141.185,6.076 142.143 C 7.077 143.102,8.459 144.136,9.148 144.441 C 9.837 144.746,10.400 145.131,10.400 145.298 C 10.400 145.464,10.760 145.600,11.200 145.600 C 11.640 145.600,12.000 145.780,12.000 146.000 C 12.000 146.220,12.529 146.400,13.176 146.400 C 13.823 146.400,14.464 146.580,14.600 146.800 C 14.758 147.055,20.271 147.200,29.824 147.200 C 39.541 147.200,44.800 147.060,44.800 146.800 C 44.800 146.580,45.329 146.400,45.976 146.400 C 46.623 146.400,47.264 146.220,47.400 146.000 C 47.536 145.780,48.087 145.600,48.624 145.600 C 49.161 145.600,49.600 145.420,49.600 145.200 C 49.600 144.980,49.836 144.800,50.125 144.800 C 50.413 144.800,51.036 144.440,51.508 144.000 C 51.980 143.560,52.554 143.200,52.783 143.200 C 53.012 143.200,53.200 143.020,53.200 142.800 C 53.200 142.580,53.398 142.400,53.639 142.400 C 54.250 142.400,56.621 139.687,57.484 138.000 C 57.878 137.230,58.335 136.540,58.500 136.467 C 58.665 136.393,58.800 136.024,58.800 135.647 C 58.800 134.356,59.681 134.000,62.880 134.000 L 66.000 134.000 66.000 138.400 C 66.000 140.820,65.857 142.800,65.682 142.800 C 64.962 142.800,55.200 152.971,55.200 153.721 C 55.200 153.918,54.660 154.583,54.000 155.200 C 53.340 155.817,52.800 156.537,52.800 156.800 C 52.800 157.063,52.260 157.783,51.600 158.400 C 50.940 159.017,50.400 159.719,50.400 159.960 C 50.400 160.202,50.220 160.400,50.000 160.400 C 49.780 160.400,49.600 160.720,49.600 161.112 C 49.600 161.503,49.240 162.083,48.800 162.400 C 48.360 162.717,48.000 163.297,48.000 163.688 C 48.000 164.080,47.820 164.400,47.600 164.400 C 47.380 164.400,47.200 164.745,47.200 165.167 C 47.200 165.588,47.059 165.993,46.886 166.067 C 46.448 166.253,44.000 171.145,44.000 171.834 C 44.000 172.146,43.820 172.400,43.600 172.400 C 43.380 172.400,43.200 172.749,43.200 173.176 C 43.200 173.603,43.036 174.054,42.835 174.178 C 42.634 174.303,42.348 175.122,42.200 176.000 C 42.052 176.878,41.766 177.697,41.565 177.822 C 41.364 177.946,41.199 178.442,41.197 178.924 C 41.193 179.881,39.686 180.800,38.120 180.800 C 37.614 180.800,37.200 180.980,37.200 181.200 C 37.200 181.420,36.581 181.600,35.824 181.600 C 35.067 181.600,34.336 181.780,34.200 182.000 C 34.064 182.220,33.524 182.400,33.000 182.400 C 32.476 182.400,31.936 182.580,31.800 182.800 C 31.664 183.020,31.203 183.200,30.776 183.200 C 30.349 183.200,30.000 183.380,30.000 183.600 C 30.000 183.820,29.657 184.000,29.238 184.000 C 28.422 184.000,25.088 185.601,24.867 186.100 C 24.793 186.265,24.388 186.400,23.967 186.400 C 23.545 186.400,23.200 186.580,23.200 186.800 C 23.200 187.020,22.840 187.200,22.400 187.200 C 21.960 187.200,21.600 187.380,21.600 187.600 C 21.600 187.820,21.240 188.000,20.800 188.000 C 20.360 188.000,20.000 188.180,20.000 188.400 C 20.000 188.620,19.640 188.800,19.200 188.800 C 18.760 188.800,18.400 188.950,18.400 189.132 C 18.400 189.315,17.905 189.720,17.300 190.032 C 16.695 190.345,15.851 190.915,15.425 191.300 C 14.998 191.685,14.458 192.000,14.224 192.000 C 13.539 192.000,7.600 197.409,7.600 198.033 C 7.600 198.235,6.880 199.141,6.000 200.048 C 5.120 200.955,4.400 201.945,4.400 202.248 C 4.400 202.552,4.220 202.800,4.000 202.800 C 3.780 202.800,3.600 203.160,3.600 203.600 C 3.600 204.040,3.420 204.400,3.200 204.400 C 2.980 204.400,2.800 204.760,2.800 205.200 C 2.800 205.640,2.620 206.000,2.400 206.000 C 2.180 206.000,2.000 206.360,2.000 206.800 C 2.000 207.240,1.820 207.600,1.600 207.600 C 1.380 207.600,1.200 208.035,1.200 208.567 C 1.200 209.098,0.975 209.608,0.700 209.700 C 0.322 209.826,0.200 211.808,0.200 217.799 C 0.200 223.790,0.322 225.773,0.700 225.900 C 0.975 225.991,1.200 226.341,1.200 226.675 C 1.200 227.474,6.972 233.200,7.777 233.200 C 8.120 233.200,8.400 233.380,8.400 233.600 C 8.400 233.820,8.670 234.000,9.000 234.000 C 9.330 234.000,9.600 234.180,9.600 234.400 C 9.600 234.620,9.960 234.800,10.400 234.800 C 10.840 234.800,11.200 234.980,11.200 235.200 C 11.200 235.420,11.560 235.600,12.000 235.600 C 12.796 235.600,12.800 235.867,12.800 291.000 C 12.800 327.667,12.935 346.400,13.200 346.400 C 13.420 346.400,13.600 346.940,13.600 347.600 C 13.600 348.260,13.780 348.800,14.000 348.800 C 14.220 348.800,14.400 349.340,14.400 350.000 C 14.400 350.660,14.580 351.200,14.800 351.200 C 15.020 351.200,15.200 351.560,15.200 352.000 C 15.200 352.763,14.933 352.800,9.400 352.800 C 5.800 352.800,3.600 352.952,3.600 353.200 C 3.600 353.420,3.322 353.600,2.982 353.600 C 2.642 353.600,1.877 354.086,1.282 354.681 C -0.890 356.851,-0.273 366.000,2.046 366.000 C 2.461 366.000,2.800 366.180,2.800 366.400 C 2.800 366.620,3.160 366.800,3.600 366.800 C 4.040 366.800,4.400 366.980,4.400 367.200 C 4.400 367.466,69.867 367.600,200.000 367.600 C 330.133 367.600,395.600 367.466,395.600 367.200 C 395.600 366.980,395.960 366.800,396.400 366.800 C 396.840 366.800,397.200 366.620,397.200 366.400 C 397.200 366.180,397.539 366.000,397.954 366.000 C 400.273 366.000,400.890 356.851,398.718 354.681 C 398.123 354.086,397.358 353.600,397.018 353.600 C 396.678 353.600,396.400 353.420,396.400 353.200 C 396.400 352.952,394.200 352.800,390.600 352.800 C 385.067 352.800,384.800 352.763,384.800 352.000 C 384.800 351.560,384.980 351.200,385.200 351.200 C 385.420 351.200,385.600 350.660,385.600 350.000 C 385.600 349.340,385.780 348.800,386.000 348.800 C 386.220 348.800,386.400 348.271,386.400 347.624 C 386.400 346.977,386.580 346.336,386.800 346.200 C 387.064 346.037,387.200 327.129,387.200 290.776 C 387.200 235.867,387.204 235.600,388.000 235.600 C 388.440 235.600,388.800 235.420,388.800 235.200 C 388.800 234.980,389.160 234.800,389.600 234.800 C 390.040 234.800,390.400 234.620,390.400 234.400 C 390.400 234.180,390.670 234.000,391.000 234.000 C 391.330 234.000,391.600 233.820,391.600 233.600 C 391.600 233.380,391.880 233.200,392.223 233.200 C 393.028 233.200,398.800 227.474,398.800 226.675 C 398.800 226.341,399.025 225.991,399.300 225.900 C 399.678 225.773,399.800 223.790,399.800 217.799 C 399.800 211.808,399.678 209.826,399.300 209.700 C 399.025 209.608,398.800 209.098,398.800 208.567 C 398.800 208.035,398.620 207.600,398.400 207.600 C 398.180 207.600,398.000 207.240,398.000 206.800 C 398.000 206.360,397.820 206.000,397.600 206.000 C 397.380 206.000,397.200 205.640,397.200 205.200 C 397.200 204.760,397.020 204.400,396.800 204.400 C 396.580 204.400,396.400 204.040,396.400 203.600 C 396.400 203.160,396.220 202.800,396.000 202.800 C 395.780 202.800,395.600 202.552,395.600 202.248 C 395.600 201.945,394.880 200.955,394.000 200.048 C 393.120 199.141,392.400 198.235,392.400 198.033 C 392.400 197.312,387.057 192.568,385.300 191.729 C 384.585 191.388,384.000 190.949,384.000 190.754 C 384.000 190.559,383.730 190.400,383.400 190.400 C 383.070 190.400,382.800 190.220,382.800 190.000 C 382.800 189.780,382.530 189.600,382.200 189.600 C 381.870 189.600,381.600 189.420,381.600 189.200 C 381.600 188.980,381.240 188.800,380.800 188.800 C 380.360 188.800,380.000 188.620,380.000 188.400 C 380.000 188.180,379.640 188.000,379.200 188.000 C 378.760 188.000,378.400 187.850,378.400 187.668 C 378.400 187.326,377.576 186.866,375.300 185.936 C 374.585 185.644,374.000 185.269,374.000 185.102 C 374.000 184.936,373.640 184.800,373.200 184.800 C 372.760 184.800,372.400 184.620,372.400 184.400 C 372.400 184.180,371.950 184.000,371.400 184.000 C 370.850 184.000,370.400 183.820,370.400 183.600 C 370.400 183.380,369.950 183.200,369.400 183.200 C 368.850 183.200,368.400 183.020,368.400 182.800 C 368.400 182.580,367.860 182.400,367.200 182.400 C 366.540 182.400,366.000 182.220,366.000 182.000 C 366.000 181.780,365.471 181.600,364.824 181.600 C 364.177 181.600,363.536 181.420,363.400 181.200 C 363.264 180.980,362.533 180.800,361.776 180.800 C 361.019 180.800,360.400 180.620,360.400 180.400 C 360.400 180.180,360.040 180.000,359.600 180.000 C 359.018 180.000,358.800 179.733,358.800 179.024 C 358.800 178.487,358.620 177.936,358.400 177.800 C 358.180 177.664,357.999 177.158,357.998 176.676 C 357.996 176.194,357.726 175.284,357.398 174.654 C 357.069 174.024,356.800 173.259,356.800 172.954 C 356.800 172.649,356.620 172.400,356.400 172.400 C 356.180 172.400,355.995 172.085,355.989 171.700 C 355.983 171.315,355.531 170.190,354.986 169.200 C 354.440 168.210,353.885 167.085,353.750 166.700 C 353.616 166.315,353.348 166.000,353.153 166.000 C 352.959 166.000,352.800 165.640,352.800 165.200 C 352.800 164.760,352.620 164.400,352.400 164.400 C 352.180 164.400,352.000 164.122,352.000 163.783 C 352.000 163.444,351.640 162.780,351.200 162.308 C 350.760 161.836,350.400 161.213,350.400 160.925 C 350.400 160.636,350.220 160.400,350.000 160.400 C 349.780 160.400,349.600 160.202,349.600 159.960 C 349.600 159.719,349.060 159.017,348.400 158.400 C 347.740 157.783,347.200 157.063,347.200 156.800 C 347.200 156.537,346.660 155.817,346.000 155.200 C 345.340 154.583,344.800 153.918,344.800 153.721 C 344.800 153.050,337.673 145.468,335.285 143.600 L 334.007 142.600 334.004 138.300 L 334.000 134.000 337.120 134.000 C 340.341 134.000,341.200 134.354,341.200 135.680 C 341.200 136.076,341.380 136.400,341.600 136.400 C 341.820 136.400,342.000 136.696,342.000 137.059 C 342.000 137.943,345.563 142.399,346.271 142.401 C 346.452 142.401,347.230 142.941,348.000 143.600 C 348.770 144.259,349.625 144.799,349.900 144.799 C 350.175 144.800,350.400 144.980,350.400 145.200 C 350.400 145.420,350.749 145.600,351.176 145.600 C 351.603 145.600,352.064 145.780,352.200 146.000 C 352.336 146.220,353.067 146.400,353.824 146.400 C 354.581 146.400,355.200 146.580,355.200 146.800 C 355.200 147.349,385.061 147.349,385.400 146.800 C 385.536 146.580,386.177 146.400,386.824 146.400 C 387.471 146.400,388.000 146.220,388.000 146.000 C 388.000 145.780,388.360 145.600,388.800 145.600 C 389.240 145.600,389.600 145.464,389.600 145.298 C 389.600 145.131,390.163 144.746,390.852 144.441 C 391.541 144.136,392.923 143.102,393.924 142.143 C 394.924 141.185,395.891 140.400,396.072 140.400 C 396.252 140.400,396.400 140.130,396.400 139.800 C 396.400 139.470,396.580 139.200,396.800 139.200 C 397.020 139.200,397.200 138.930,397.200 138.600 C 397.200 138.270,397.335 137.999,397.500 137.997 C 397.851 137.993,398.800 136.063,398.800 135.354 C 398.800 135.086,399.025 134.792,399.300 134.700 C 399.688 134.571,399.800 131.271,399.800 120.000 C 399.800 108.729,399.688 105.429,399.300 105.300 C 399.025 105.208,398.800 104.788,398.800 104.367 C 398.800 103.945,398.620 103.600,398.400 103.600 C 398.180 103.600,398.000 103.240,398.000 102.800 C 398.000 102.360,397.850 102.000,397.668 102.000 C 397.485 102.000,397.080 101.507,396.768 100.905 C 396.002 99.428,392.961 96.400,392.244 96.400 C 391.926 96.400,391.607 96.258,391.533 96.086 C 391.273 95.471,388.864 94.000,388.118 94.000 C 387.701 94.000,387.189 93.849,386.980 93.664 C 385.099 92.003,352.800 91.984,352.800 93.644 C 352.800 93.840,352.510 94.000,352.154 94.000 C 351.323 94.000,348.391 95.593,347.553 96.500 C 347.197 96.885,346.714 97.200,346.480 97.200 C 346.245 97.200,345.367 98.055,344.527 99.099 C 343.687 100.144,342.775 101.237,342.500 101.528 C 342.225 101.819,342.000 102.404,342.000 102.829 C 342.000 103.253,341.820 103.600,341.600 103.600 C 341.380 103.600,341.200 103.960,341.200 104.400 C 341.200 104.840,341.020 105.200,340.800 105.200 C 340.580 105.200,340.400 105.819,340.400 106.576 C 340.400 107.333,340.220 108.064,340.000 108.200 C 339.765 108.345,339.600 110.671,339.600 113.824 L 339.600 119.200 336.800 119.200 L 334.000 119.200 334.000 96.024 C 334.000 81.004,333.859 72.760,333.600 72.600 C 333.380 72.464,333.200 71.564,333.200 70.600 C 333.200 69.636,333.020 68.736,332.800 68.600 C 332.580 68.464,332.400 67.834,332.400 67.200 C 332.400 66.566,332.220 65.936,332.000 65.800 C 331.780 65.664,331.600 65.113,331.600 64.576 C 331.600 64.039,331.420 63.600,331.200 63.600 C 330.980 63.600,330.800 63.060,330.800 62.400 C 330.800 61.740,330.620 61.200,330.400 61.200 C 330.180 61.200,330.000 60.840,330.000 60.400 C 330.000 59.960,329.820 59.600,329.600 59.600 C 329.380 59.600,329.200 59.330,329.200 59.000 C 329.200 58.670,329.020 58.400,328.800 58.400 C 328.580 58.400,328.400 58.040,328.400 57.600 C 328.400 57.160,328.220 56.800,328.000 56.800 C 327.780 56.800,327.600 56.480,327.600 56.088 C 327.600 55.697,327.240 55.117,326.800 54.800 C 326.360 54.483,326.000 53.903,326.000 53.512 C 326.000 53.120,325.842 52.800,325.649 52.800 C 325.455 52.800,325.068 52.246,324.787 51.569 C 324.155 50.044,316.794 42.578,315.527 42.178 C 315.017 42.017,314.309 41.551,313.953 41.143 C 313.597 40.734,313.052 40.400,312.741 40.400 C 312.431 40.400,311.917 40.040,311.600 39.600 C 311.283 39.160,310.703 38.800,310.312 38.800 C 309.920 38.800,309.600 38.620,309.600 38.400 C 309.600 38.180,309.240 38.000,308.800 38.000 C 308.360 38.000,308.000 37.864,308.000 37.698 C 308.000 37.531,307.415 37.156,306.700 36.864 C 303.950 35.741,303.378 35.496,302.705 35.153 C 302.323 34.959,301.659 34.800,301.229 34.800 C 300.799 34.800,300.336 34.620,300.200 34.400 C 300.064 34.180,299.344 34.000,298.600 34.000 C 297.856 34.000,297.136 33.820,297.000 33.600 C 296.864 33.380,295.593 33.200,294.176 33.200 C 292.725 33.200,291.600 33.025,291.600 32.800 C 291.600 32.534,260.800 32.400,200.000 32.400 C 139.200 32.400,108.400 32.534,108.400 32.800 M294.800 47.736 C 304.441 50.449,312.805 57.478,316.817 66.236 C 319.836 72.830,319.720 71.277,319.894 107.286 L 320.051 139.572 319.125 139.801 C 318.616 139.927,315.680 139.978,312.600 139.915 L 307.000 139.800 306.786 107.800 C 306.576 76.256,306.561 75.770,305.715 73.684 C 302.928 66.810,297.764 62.172,291.163 60.616 C 287.282 59.701,112.718 59.701,108.837 60.616 C 102.119 62.200,96.713 67.142,94.240 73.961 C 93.458 76.120,93.421 77.338,93.214 108.000 L 93.000 139.800 86.600 139.800 L 80.200 139.800 80.200 107.200 C 80.200 72.616,80.154 73.543,82.117 68.400 C 86.230 57.623,95.024 50.012,106.400 47.386 C 110.448 46.451,291.431 46.787,294.800 47.736 M289.000 74.000 C 293.064 76.032,292.800 73.615,292.800 108.734 L 292.800 139.508 280.300 139.778 C 273.425 139.926,231.620 139.992,187.400 139.924 L 107.000 139.800 106.898 109.066 C 106.778 73.351,106.574 74.849,111.746 73.570 C 114.383 72.918,287.677 73.339,289.000 74.000 M43.853 107.894 C 46.370 109.689,46.800 111.455,46.800 120.000 C 46.800 133.121,46.214 133.601,30.200 133.588 C 13.739 133.575,13.200 133.144,13.200 120.000 C 13.200 110.645,13.926 108.512,17.600 107.080 C 19.606 106.298,42.616 107.012,43.853 107.894 M383.853 107.894 C 386.370 109.689,386.800 111.455,386.800 120.000 C 386.800 133.144,386.261 133.575,369.800 133.588 C 353.786 133.601,353.200 133.121,353.200 120.000 C 353.200 110.645,353.926 108.512,357.600 107.080 C 359.606 106.298,382.616 107.012,383.853 107.894 M325.864 154.738 C 332.994 160.403,340.746 171.384,344.333 180.900 C 346.518 186.697,346.943 187.649,347.938 188.981 C 349.784 191.451,352.582 193.089,357.570 194.620 C 364.527 196.756,369.037 198.616,373.594 201.230 C 382.572 206.379,389.167 217.449,385.103 220.549 C 381.012 223.669,372.110 225.788,360.418 226.425 C 347.419 227.133,347.056 227.414,346.391 237.306 C 345.914 244.394,345.493 247.245,343.927 254.000 C 342.742 259.106,340.740 263.568,338.811 265.400 L 337.548 266.600 199.728 266.600 L 61.909 266.600 60.573 265.055 C 58.369 262.506,55.911 255.691,54.781 249.000 C 54.058 244.718,53.216 236.666,53.208 233.959 C 53.191 228.189,51.522 227.174,41.027 226.550 C 24.663 225.577,13.166 222.311,13.205 218.645 C 13.308 208.914,25.626 198.965,43.507 194.171 C 50.038 192.420,52.025 190.197,55.632 180.600 C 58.817 172.126,64.145 164.249,71.529 157.100 L 75.557 153.200 199.742 153.200 L 323.928 153.200 325.864 154.738 M83.000 180.378 C 76.655 181.571,71.662 185.480,68.665 191.600 L 67.000 195.000 67.000 206.400 C 67.000 215.026,67.132 218.141,67.541 219.200 C 70.242 226.188,73.812 229.758,80.800 232.459 C 81.914 232.890,86.568 233.000,103.600 233.000 L 125.000 233.000 128.436 231.320 C 137.331 226.969,140.000 221.250,140.000 206.538 C 140.000 191.269,136.798 185.205,126.600 181.162 L 124.200 180.211 104.400 180.144 C 93.510 180.107,83.880 180.212,83.000 180.378 M158.200 180.267 C 156.714 180.665,154.717 182.498,153.965 184.154 C 153.029 186.216,152.773 238.682,153.685 241.725 C 155.353 247.292,163.194 248.239,165.806 243.188 C 166.703 241.453,166.698 185.336,165.800 183.601 C 164.529 181.142,160.890 179.546,158.200 180.267 M184.549 180.414 C 179.957 181.820,179.961 181.794,180.090 214.313 L 180.200 242.263 181.321 243.732 C 184.194 247.498,189.434 247.496,192.000 243.728 L 193.000 242.259 193.108 213.706 C 193.227 182.035,193.338 183.461,190.607 181.378 C 189.153 180.269,186.435 179.837,184.549 180.414 M211.400 180.267 C 210.027 180.635,208.141 182.295,207.456 183.738 C 206.501 185.750,206.452 240.393,207.403 242.669 C 209.843 248.509,218.892 247.371,219.794 241.111 C 220.474 236.396,219.817 184.629,219.062 183.382 C 217.632 181.021,214.038 179.560,211.400 180.267 M238.200 180.267 C 236.928 180.608,234.853 182.338,234.200 183.601 C 233.302 185.336,233.297 241.453,234.194 243.188 C 236.848 248.320,244.776 247.254,246.350 241.554 C 247.214 238.426,246.801 185.368,245.900 183.721 C 244.479 181.122,240.937 179.533,238.200 180.267 M276.400 180.393 C 268.678 181.775,262.069 188.208,260.446 195.920 C 259.869 198.663,259.866 214.516,260.442 217.280 C 261.795 223.769,266.638 229.457,273.000 232.029 L 275.400 233.000 296.600 233.000 C 313.464 233.000,318.086 232.889,319.200 232.459 C 326.188 229.758,329.758 226.188,332.459 219.200 C 332.868 218.141,333.000 215.026,333.000 206.400 L 333.000 195.000 331.335 191.600 C 328.815 186.455,325.375 183.288,319.916 181.091 C 317.656 180.181,280.878 179.591,276.400 180.393 M122.018 193.598 C 125.963 194.694,126.800 196.986,126.800 206.700 C 126.800 220.639,127.207 220.400,103.443 220.400 C 79.707 220.400,79.600 220.338,79.600 206.611 C 79.600 198.048,81.050 194.138,84.468 193.486 C 86.429 193.113,120.637 193.215,122.018 193.598 M316.240 193.962 C 319.534 195.459,320.400 198.079,320.400 206.557 C 320.400 220.346,320.308 220.400,296.557 220.400 C 272.783 220.400,273.200 220.645,273.200 206.661 C 273.200 197.003,273.996 194.766,277.842 193.615 C 280.432 192.840,314.446 193.147,316.240 193.962 M33.533 239.402 C 40.961 240.119,40.226 239.636,40.536 244.010 C 41.036 251.053,42.989 258.661,46.266 266.332 L 48.041 270.489 45.672 272.956 C 40.894 277.932,40.014 281.088,40.006 293.280 C 39.997 305.727,40.963 309.072,45.996 314.039 C 48.420 316.431,49.648 317.206,54.200 319.217 C 55.286 319.697,71.306 320.141,95.524 320.362 L 99.647 320.400 99.511 331.300 C 99.347 344.403,99.151 345.271,95.548 348.900 C 94.292 350.165,92.980 351.200,92.632 351.200 C 92.284 351.200,92.000 351.360,92.000 351.555 C 92.000 351.750,91.460 352.020,90.800 352.155 C 90.140 352.290,89.072 352.509,88.426 352.642 L 87.251 352.883 87.126 345.742 C 86.957 336.156,85.451 333.605,79.959 333.601 C 74.643 333.598,73.445 335.764,73.262 345.707 L 73.125 353.214 63.262 353.107 L 53.400 353.000 53.291 345.449 C 53.177 337.526,53.089 337.123,51.005 334.963 C 49.330 333.227,45.001 333.047,42.930 334.627 C 40.324 336.614,40.220 336.996,40.000 345.381 L 39.800 353.000 38.821 353.138 C 35.495 353.608,30.482 350.179,28.092 345.800 L 27.000 343.800 26.894 291.300 C 26.836 262.425,26.926 238.802,27.094 238.805 C 27.262 238.807,30.160 239.076,33.533 239.402 M372.600 291.428 L 372.600 343.456 371.613 345.375 C 370.034 348.444,365.965 352.000,364.032 352.000 C 363.600 352.000,363.136 352.180,363.000 352.400 C 362.864 352.620,362.223 352.800,361.576 352.800 L 360.400 352.800 360.400 345.600 C 360.400 341.067,360.252 338.400,360.000 338.400 C 359.780 338.400,359.600 338.099,359.600 337.731 C 359.600 334.988,353.251 332.474,350.304 334.051 C 347.244 335.689,346.813 337.067,346.699 345.600 L 346.600 353.000 336.738 353.107 L 326.875 353.214 326.738 345.707 C 326.555 335.742,325.363 333.600,320.000 333.600 C 314.596 333.600,313.200 336.163,313.200 346.085 L 313.200 353.200 312.015 353.200 C 308.573 353.200,303.400 349.757,301.701 346.336 C 300.088 343.088,299.956 341.825,300.080 330.800 L 300.200 320.200 322.400 320.000 C 340.188 319.839,344.838 319.689,345.800 319.243 C 346.460 318.937,347.935 318.254,349.077 317.725 C 353.356 315.744,357.477 310.929,358.957 306.181 C 359.365 304.872,359.857 303.487,360.050 303.105 C 360.505 302.202,360.508 284.114,360.053 283.832 C 359.861 283.714,359.594 282.939,359.458 282.109 C 359.031 279.495,356.986 275.828,354.433 273.099 L 351.969 270.465 353.739 266.320 C 356.941 258.825,358.977 250.987,359.470 244.261 C 359.785 239.971,359.746 240.005,364.349 239.972 C 366.467 239.956,368.560 239.785,369.000 239.590 C 369.440 239.396,370.430 239.274,371.200 239.319 L 372.600 239.400 372.600 291.428 M77.536 240.526 C 72.531 242.804,72.133 249.724,76.854 252.381 C 79.171 253.685,94.250 253.612,96.592 252.285 C 100.830 249.885,101.014 243.964,96.937 241.200 C 95.209 240.029,79.804 239.494,77.536 240.526 M304.200 240.595 C 299.036 243.020,298.593 249.558,303.408 252.285 C 305.787 253.632,320.830 253.684,323.198 252.353 C 327.829 249.750,327.378 242.629,322.451 240.565 C 320.533 239.762,305.923 239.785,304.200 240.595 M343.863 281.442 C 346.471 283.551,346.868 285.289,346.723 293.982 C 346.582 302.484,346.239 303.701,343.467 305.536 L 341.859 306.600 294.360 306.711 C 249.133 306.817,246.851 306.788,246.660 306.111 C 246.550 305.720,246.345 304.770,246.206 304.000 C 245.491 300.059,241.956 295.840,238.190 294.430 C 235.183 293.306,165.495 293.109,162.350 294.216 C 158.140 295.699,154.744 299.489,153.614 303.965 L 152.949 306.600 105.312 306.600 L 57.674 306.600 56.137 305.372 C 53.383 303.171,53.201 302.431,53.201 293.426 C 53.200 283.641,54.041 281.238,57.800 280.292 C 58.240 280.181,122.438 280.115,200.463 280.145 L 342.326 280.200 343.863 281.442 M233.158 306.950 C 233.479 307.336,233.583 310.341,233.507 317.050 L 233.400 326.600 200.000 326.600 L 166.600 326.600 166.493 317.050 C 166.417 310.341,166.521 307.336,166.842 306.950 C 167.222 306.492,172.745 306.400,200.000 306.400 C 227.255 306.400,232.778 306.492,233.158 306.950 M152.800 325.800 C 152.800 328.867,152.955 330.800,153.200 330.800 C 153.420 330.800,153.600 331.340,153.600 332.000 C 153.600 332.660,153.780 333.200,154.000 333.200 C 154.220 333.200,154.400 333.474,154.400 333.809 C 154.400 335.560,160.288 339.934,163.600 340.644 C 165.514 341.054,234.201 341.071,236.200 340.662 C 239.674 339.951,245.600 335.631,245.600 333.809 C 245.600 333.474,245.780 333.200,246.000 333.200 C 246.220 333.200,246.400 332.660,246.400 332.000 C 246.400 331.340,246.580 330.800,246.800 330.800 C 247.045 330.800,247.200 328.867,247.200 325.800 L 247.200 320.800 266.400 320.800 L 285.600 320.800 285.600 331.200 C 285.600 337.867,285.744 341.600,286.000 341.600 C 286.225 341.600,286.400 342.725,286.400 344.176 C 286.400 345.593,286.580 346.864,286.800 347.000 C 287.020 347.136,287.200 347.777,287.200 348.424 C 287.200 349.071,287.380 349.600,287.600 349.600 C 287.820 349.600,288.000 349.960,288.000 350.400 C 288.000 350.840,288.180 351.200,288.400 351.200 C 288.620 351.200,288.800 351.560,288.800 352.000 C 288.800 352.798,288.533 352.800,200.000 352.800 C 111.467 352.800,111.200 352.798,111.200 352.000 C 111.200 351.560,111.380 351.200,111.600 351.200 C 111.820 351.200,112.000 350.840,112.000 350.400 C 112.000 349.960,112.180 349.600,112.400 349.600 C 112.620 349.600,112.800 348.981,112.800 348.224 C 112.800 347.467,112.980 346.736,113.200 346.600 C 113.420 346.464,113.600 345.103,113.600 343.576 C 113.600 341.992,113.772 340.800,114.000 340.800 C 114.256 340.800,114.400 337.200,114.400 330.800 L 114.400 320.800 133.600 320.800 L 152.800 320.800 152.800 325.800 " stroke="none" fill="#040404" fill-rule="evenodd"></path></g></svg>